<?xml version="1.0" encoding="UTF-8" standalone="no"?>
<!-- Created with Inkscape (http://www.inkscape.org/) -->

<svg
   width="48"
   height="48"
   viewBox="0 0 12.7 12.7"
   version="1.1"
   id="svg5"
   inkscape:export-filename="bitmap.png"
   inkscape:export-xdpi="96"
   inkscape:export-ydpi="96"
   inkscape:version="1.2.2 (b0a8486541, 2022-12-01)"
   sodipodi:docname="drawing.svg"
   xmlns:inkscape="http://www.inkscape.org/namespaces/inkscape"
   xmlns:sodipodi="http://sodipodi.sourceforge.net/DTD/sodipodi-0.dtd"
   xmlns:xlink="http://www.w3.org/1999/xlink"
   xmlns="http://www.w3.org/2000/svg"
   xmlns:svg="http://www.w3.org/2000/svg">
  <sodipodi:namedview
     id="namedview7"
     pagecolor="#505050"
     bordercolor="#eeeeee"
     borderopacity="1"
     inkscape:showpageshadow="0"
     inkscape:pageopacity="0"
     inkscape:pagecheckerboard="0"
     inkscape:deskcolor="#505050"
     inkscape:document-units="px"
     showgrid="false"
     inkscape:zoom="10.35098"
     inkscape:cx="9.4193981"
     inkscape:cy="33.426787"
     inkscape:window-width="2560"
     inkscape:window-height="1371"
     inkscape:window-x="0"
     inkscape:window-y="0"
     inkscape:window-maximized="1"
     inkscape:current-layer="layer1" />
  <defs
     id="defs2">
    <linearGradient
       inkscape:collect="always"
       id="linearGradient1574">
      <stop
         style="stop-color:#000080;stop-opacity:1;"
         offset="0"
         id="stop1570" />
      <stop
         style="stop-color:#000080;stop-opacity:0;"
         offset="1"
         id="stop1572" />
    </linearGradient>
    <inkscape:path-effect
       effect="bspline"
       id="path-effect353"
       is_visible="true"
       lpeversion="1"
       weight="33.333333"
       steps="2"
       helper_size="0"
       apply_no_weight="true"
       apply_with_weight="true"
       only_selected="false" />
    <inkscape:path-effect
       effect="bspline"
       id="path-effect349"
       is_visible="true"
       lpeversion="1"
       weight="33.333333"
       steps="2"
       helper_size="0"
       apply_no_weight="true"
       apply_with_weight="true"
       only_selected="false" />
    <linearGradient
       inkscape:collect="always"
       xlink:href="#linearGradient1574"
       id="linearGradient1576"
       x1="0.50574601"
       y1="25.475878"
       x2="51.629128"
       y2="35.379833"
       gradientUnits="userSpaceOnUse"
       spreadMethod="pad" />
  </defs>
  <g
     inkscape:label="Layer 1"
     inkscape:groupmode="layer"
     id="layer1">
    <path
       sodipodi:type="spiral"
       style="fill:none;fill-rule:evenodd;stroke:#000000;stroke-width:0.999727;stroke-dasharray:none"
       id="path618"
       sodipodi:cx="8.3341455"
       sodipodi:cy="4.749588"
       sodipodi:expansion="1"
       sodipodi:revolution="3"
       sodipodi:radius="7.1167178"
       sodipodi:argument="-17.462919"
       sodipodi:t0="0"
       d="M 8.3341455,4.749588 C 8.3994868,5.1003753 7.8935284,5.0107327 7.7511141,4.8581894 7.3651801,4.4448065 7.6920068,3.8114536 8.1169428,3.5835251 8.8770535,3.1758145 9.7762216,3.6837593 10.08324,4.4237839 10.533802,5.5097997 9.8243536,6.705871 8.7685511,7.0817139 7.3613324,7.5826533 5.8597553,6.6647939 5.4189882,5.2925949 4.8643278,3.5658225 5.9935559,1.755169 7.6825373,1.2513992 9.72812,0.6412665 11.849688,1.9833791 12.415366,3.9893784 13.081997,6.3533791 11.526124,8.7869387 9.2029566,9.4138397 6.5207681,10.137622 3.7745299,8.3674353 3.0868624,5.7270004 2.3054908,2.7267705 4.2903598,-0.33261289 7.2481317,-1.0807266 10.566305,-1.9199972 13.939165,0.27981388 14.747492,3.5549728 15.644888,7.19102 13.229945,10.877601 9.6373621,11.745966"
       transform="matrix(0.95393013,0,0,0.95159089,-2.1859014,1.7572756)" />
    <path
       style="fill:url(#linearGradient1576);stroke-width:0.347793;stroke-dasharray:none"
       d="m 26.906685,50.405856 c -0.02267,-0.06642 -0.210351,-0.827216 -0.417065,-1.690661 -0.286293,-1.195848 -0.344797,-1.5699 -0.245542,-1.5699 0.413821,0 3.322262,-1.080074 4.556488,-1.69209 2.342748,-1.161698 4.080698,-2.388901 5.947042,-4.199331 3.869074,-3.753157 6.260683,-8.486333 6.932655,-13.720249 C 43.8499,26.212346 43.825887,23.46034 43.633008,22.117869 42.986416,17.617473 41.078698,13.65195 38.021019,10.452375 34.163192,6.4155202 29.118422,4.094967 23.765866,3.8951207 16.159814,3.6111365 9.1569695,7.8082491 5.8443136,14.636296 3.4049354,19.664342 3.433746,25.561894 5.9206515,30.2627 c 0.8781142,1.659832 1.7016635,2.77051 3.0627268,4.130541 1.4690927,1.467978 2.6143907,2.298247 4.3969977,3.187547 2.642848,1.318455 4.938451,1.821908 7.777041,1.705597 2.245929,-0.09203 3.913581,-0.514692 5.941467,-1.505861 1.541705,-0.753538 2.674603,-1.570202 3.962324,-2.856294 1.960854,-1.958371 3.193568,-4.137213 3.883701,-6.864506 0.249283,-0.985124 0.267585,-1.192908 0.267585,-3.037938 0,-1.837994 -0.01897,-2.055379 -0.263587,-3.021351 -1.211471,-4.783898 -4.796256,-8.314482 -9.554402,-9.409945 -0.522309,-0.12025 -1.146462,-0.163001 -2.353208,-0.161178 -1.451257,0.0022 -1.749977,0.03122 -2.567271,0.249518 -1.838549,0.491062 -3.342286,1.30178 -4.69913,2.533466 -1.242793,1.128156 -2.365891,2.936528 -2.895654,4.662477 -0.237674,0.774331 -0.260753,0.990408 -0.265997,2.490259 -0.005,1.429232 0.02257,1.740037 0.212432,2.395087 1.033871,3.566983 4.163188,6.05822 7.609912,6.05822 1.91805,0 3.33841,-0.576079 4.643975,-1.883533 0.921744,-0.923077 1.405971,-1.802128 1.649935,-2.995233 0.570914,-2.792063 -1.628468,-5.506651 -4.154611,-5.127833 -0.849006,0.127316 -1.705671,0.964278 -1.706804,1.667544 -3.86e-4,0.220055 -0.05422,0.324521 -0.18947,0.367448 -0.472889,0.150089 -0.94987,1.208962 -0.544591,1.208962 0.07475,0 0.838036,-0.131454 1.696182,-0.292118 0.858146,-0.160665 1.606554,-0.263509 1.663129,-0.228543 0.06515,0.04026 0.08022,0.25626 0.0411,0.589095 -0.232823,1.980949 -2.309809,2.813183 -4.341453,1.739588 -0.924917,-0.488761 -1.628304,-1.542166 -1.825874,-2.734468 -0.282488,-1.704757 0.755831,-3.782279 2.453785,-4.909657 0.870506,-0.577983 1.796461,-0.859285 2.978881,-0.904973 1.20692,-0.04663 1.984271,0.107928 3.073242,0.611064 3.81499,1.762634 5.478521,6.348591 3.781565,10.424865 -0.888387,2.134002 -2.780292,4.070455 -4.959447,5.076226 -1.420797,0.655757 -3.402898,1.036403 -4.793636,0.920579 C 17.023792,34.10769 14.610331,32.983675 12.5504,30.923745 10.805227,29.178571 9.7506164,27.20454 9.216681,24.683654 8.9895016,23.611064 8.9873669,21.302495 9.2124967,20.158549 10.23849,14.945189 14.329253,10.628146 19.466756,9.3370741 c 1.321708,-0.3321494 2.269578,-0.4490266 3.64159,-0.4490266 5.80973,0 11.286815,3.4713645 13.980722,8.8609515 2.857686,5.717251 2.115659,12.47314 -1.960414,17.848889 -2.775306,3.660226 -6.775333,6.085075 -11.507702,6.976062 -1.229783,0.231538 -4.216296,0.276443 -5.593085,0.0841 C 11.350273,41.725149 5.5506591,37.486853 2.5517244,31.348248 0.72714583,27.613465 0.08608997,23.204729 0.77745599,19.146064 1.3945531,15.523393 2.7533685,12.367493 4.9862005,9.3710935 5.8246109,8.2459698 7.8885666,6.1168268 8.9425533,5.2897845 11.437065,3.3323913 14.526121,1.8032172 17.476675,1.0651431 c 2.114164,-0.5288534 3.024883,-0.63067087 5.612927,-0.62751982 2.457949,0.002993 3.329334,0.0924761 5.211907,0.53521638 7.55216,1.77610354 13.969913,7.17520854 17.054873,14.34786134 0.83012,1.930065 1.484359,4.327116 1.803985,6.60959 0.190583,1.360966 0.164371,4.97439 -0.0466,6.424513 -0.676917,4.652734 -2.495301,8.876658 -5.481606,12.733214 -0.937454,1.210642 -3.65216,3.867668 -4.920657,4.816106 -2.633643,1.969141 -5.534122,3.446451 -8.491579,4.325046 -1.116889,0.331801 -1.253992,0.350248 -1.313236,0.176686 z"
       id="path1370"
       transform="scale(0.26458334)" />
    <circle
       style="fill:#000042;stroke-width:0.9525;stroke-dasharray:none;fill-opacity:1"
       id="path1723"
       cy="5.9604993"
       cx="6.169682"
       r="1.5875" />
  </g>
</svg>
